<mxfile host="app.diagrams.net" modified="2023-08-07T14:01:25.709Z" agent="Mozilla/5.0 (Macintosh; Intel Mac OS X 10.13; rv:109.0) Gecko/20100101 Firefox/115.0" version="21.5.0" etag="1MA3fej2CrAU7RC9IE41" type="github">
  <diagram name="PÃ¡gina-1" id="ZCP97-IscQOvUgEMdar5">
    <mxGraphModel>
      <root>
        <mxCell id="0" />
        <mxCell id="1" parent="0" />
      </root>
    </mxGraphModel>
  </diagram>
</mxfile>
